<?xml version="1.0" encoding="UTF-8"?>
<!DOCTYPE svg PUBLIC "-//W3C//DTDSVG1.1//EN" "http://www.w3.org/Graphics/SVG/1.1/DTD/svg11.dtd">
<!-- Creator: CorelDRAW X5 -->
<svg xmlns="http://www.w3.org/2000/svg" xml:space="preserve" width="210mm" height="62.983mm" style="shape-rendering:geometricPrecision; text-rendering:geometricPrecision; image-rendering:optimizeQuality; fill-rule:evenodd; clip-rule:evenodd" viewBox="0 0 21000 6298" xmlns:xlink="http://www.w3.org/1999/xlink">
    <defs>
        <style type="text/css">
            <![CDATA[
            .fil0 {
                fill: #1DD660;
                fill-rule: nonzero;
                box-shadow: 10px 10px green
            }
        ]]>
        </style>
    </defs>
    <g id="__x0023_Layer_x0020_1">
        <metadata id="CorelCorpID_0Corel-Layer"/>
        <path class="fil0" d="M3149 0c-1739,0 -3149,1410 -3149,3149 0,1739 1410,3149 3149,3149 1739,0 3149,-1410 3149,-3149 0,-1739 -1410,-3149 -3149,-3149l0 0zm1444 4542l0 0c-56,93 -177,122 -270,65 -739,-452 -1670,-554 -2766,-303 -106,24 -211,-42 -235,-148 -24,-106 42,-211 148,-235 1200,-274 2229,-156 3059,351 93,57 122,178 65,270zm385 -857l0 0c-71,116 -222,152 -338,81 -847,-520 -2137,-671 -3138,-367 -130,39 -267,-34 -306,-164 -39,-130 34,-267 164,-306 1144,-347 2566,-179 3538,418 115,71 152,222 81,338l0 0zm33 -893l0 0c-1015,-603 -2690,-658 -3659,-364 -156,47 -320,-41 -367,-196 -47,-156 41,-320 196,-367 1112,-338 2962,-272 4130,421 140,83 186,264 103,404 -83,140 -264,186 -403,103l0 0zm3556 116l0 0c-544,-130 -640,-221 -640,-412 0,-181 170,-302 423,-302 245,0 488,92 743,282 8,6 17,8 27,7 10,-1 18,-7 24,-15l265 -374c11,-15 8,-37 -7,-48 -303,-243 -645,-362 -1044,-362 -587,0 -997,352 -997,856 0,541 354,732 965,880 520,120 608,220 608,400 0,199 -177,323 -463,323 -317,0 -577,-107 -866,-358 -7,-6 -17,-9 -26,-9 -10,1 -18,5 -24,12l-298 354c-12,15 -11,37 3,50 337,301 751,460 1199,460 633,0 1041,-346 1041,-881 1,-452 -269,-702 -931,-863l-1 0zm2364 -536l0 0c-274,0 -499,108 -685,329l0 -249c0,-20 -16,-36 -35,-36l-487 0c-20,0 -35,16 -35,36l0 2768c0,20 16,36 35,36l487 0c20,0 35,-16 35,-36l0 -874c186,208 411,310 685,310 510,0 1025,-392 1025,-1142 1,-750 -515,-1142 -1025,-1142l0 0zm459 1142l0 0c0,382 -235,648 -572,648 -333,0 -584,-279 -584,-648 0,-370 251,-648 584,-648 331,0 572,273 572,648l0 0zm1888 -1142l0 0c-656,0 -1170,505 -1170,1150 0,638 511,1138 1162,1138 659,0 1174,-504 1174,-1146 0,-640 -512,-1142 -1166,-1142l0 0zm0 1794l0 0c-349,0 -612,-281 -612,-652 0,-373 254,-644 604,-644 351,0 616,280 616,652 0,373 -256,644 -608,644zm2567 -1750l0 0 -536 0 0 -548c0,-20 -16,-36 -35,-36l-487 0c-20,0 -36,16 -36,36l0 548 -234 0c-20,0 -35,16 -35,36l0 418c0,20 16,36 35,36l234 0 0 1083c0,437 218,659 648,659 174,0 319,-36 456,-114 11,-6 18,-18 18,-31l0 -399c0,-12 -6,-24 -17,-30 -11,-7 -24,-7 -35,-2 -94,47 -184,69 -286,69 -156,0 -226,-71 -226,-230l0 -1006 536 0c20,0 35,-16 35,-36l0 -418c1,-20 -15,-36 -35,-36l0 0zm1867 2l0 0 0 -67c0,-198 76,-286 246,-286 102,0 183,20 275,51 11,4 23,2 32,-5 9,-7 15,-18 15,-29l0 -410c0,-16 -10,-30 -25,-34 -96,-29 -220,-58 -405,-58 -449,0 -687,253 -687,732l0 103 -234 0c-20,0 -36,16 -36,36l0 421c0,20 16,36 36,36l234 0 0 1670c0,20 16,36 36,36l487 0c20,0 36,-16 36,-36l0 -1670 455 0 696 1670c-79,175 -157,210 -263,210 -86,0 -176,-26 -269,-76 -9,-5 -19,-5 -28,-3 -9,3 -17,10 -21,19l-165 362c-8,17 -1,37 15,46 172,93 328,133 520,133 360,0 558,-168 733,-618l845 -2183c4,-11 3,-23 -4,-33 -6,-10 -17,-16 -29,-16l-507 0c-15,0 -29,10 -34,24l-519 1483 -569 -1484c-5,-14 -18,-23 -33,-23l-832 0 0 0zm-1082 -2l0 0 -487 0c-20,0 -36,16 -36,36l0 2124c0,20 16,36 36,36l487 0c20,0 36,-16 36,-36l0 -2124c0,-20 -16,-36 -36,-36l0 0zm-241 -967l0 0c-193,0 -349,156 -349,349 0,193 156,349 349,349 193,0 349,-156 349,-349 0,-193 -156,-349 -349,-349zm4265 1650l0 0c-193,0 -343,-155 -343,-343 0,-188 152,-344 344,-344 193,0 343,155 343,342 0,188 -152,345 -344,345zm2 -653l0 0c-176,0 -308,140 -308,310 0,171 132,308 307,308 176,0 308,-139 308,-310 0,-171 -132,-308 -307,-308zm76 344l0 0 97 136 -82 0 -87 -124 -75 0 0 124 -68 0 0 -360 160 0c84,0 139,43 139,115 0,59 -34,95 -83,109l0 0zm-58 -162l0 0 -89 0 0 114 89 0c44,0 71,-22 71,-57 0,-37 -27,-57 -71,-57z"/>
    </g>
</svg>
